<?xml version="1.0" encoding="UTF-8" standalone="no"?>
<!-- Created with Inkscape (http://www.inkscape.org/) -->
<svg
   xmlns:svg="http://www.w3.org/2000/svg"
   xmlns="http://www.w3.org/2000/svg"
   version="1.0"
   width="814.96063"
   height="193.46457"
   id="svg7217">
  <defs
     id="defs7219" />
  <g
     transform="translate(-3850.2474,2468.1923)"
     id="layer1">
    <g
       transform="translate(17.716516,17.702885)"
       id="g20018">
      <path
         d="M 3929.0014,-2310.1335 C 3885.6948,-2310.1335 3850.2474,-2345.5809 3850.2474,-2389.5169 C 3850.2474,-2432.7449 3885.6948,-2468.1923 3929.0014,-2468.1923 C 3972.8588,-2468.1923 4008.3062,-2432.7449 4008.3062,-2389.5169 C 4008.3062,-2345.5809 3972.8588,-2310.1335 3929.0014,-2310.1335 z M 3929.0014,-2343.2228 C 3954.7817,-2343.2228 3975.2169,-2363.658 3975.2169,-2389.5169 C 3975.2169,-2414.7464 3954.7817,-2435.1816 3929.0014,-2435.1816 C 3903.6933,-2435.1816 3883.2581,-2414.7464 3883.2581,-2389.5169 C 3883.2581,-2363.658 3903.6933,-2343.2228 3929.0014,-2343.2228"
         style="fill:#166fc0;fill-rule:evenodd;stroke:none"
         id="path19971" />
      <path
         d="M 4414.6539,-2310.1335 C 4371.3473,-2310.1335 4335.8999,-2345.5809 4335.8999,-2389.5169 C 4335.8999,-2432.7449 4371.3473,-2468.1923 4414.6539,-2468.1923 C 4458.5113,-2468.1923 4493.9587,-2432.7449 4493.9587,-2389.5169 C 4493.9587,-2345.5809 4458.5113,-2310.1335 4414.6539,-2310.1335 z M 4414.6539,-2343.2228 C 4440.4342,-2343.2228 4460.8694,-2363.658 4460.8694,-2389.5169 C 4460.8694,-2414.7464 4440.4342,-2435.1816 4414.6539,-2435.1816 C 4389.3458,-2435.1816 4368.9106,-2414.7464 4368.9106,-2389.5169 C 4368.9106,-2363.658 4389.3458,-2343.2228 4414.6539,-2343.2228"
         style="fill:#166fc0;fill-rule:evenodd;stroke:none"
         id="path19973" />
      <path
         d="M 4017.3451,-2463.3981 L 4017.3451,-2313.7487 L 4050.3557,-2313.7487 L 4050.3557,-2435.7319 L 4087.0608,-2435.7319 L 4087.0608,-2313.7487 L 4120.0715,-2313.7487 L 4120.0715,-2435.7319 L 4132.7255,-2435.7319 C 4145.9303,-2435.7319 4156.1477,-2425.5145 4156.1477,-2412.9385 L 4156.1477,-2313.7487 L 4189.237,-2313.7487 L 4189.237,-2411.7595 C 4189.237,-2441.1549 4165.8153,-2464.6557 4136.3413,-2464.6557 L 4050.9846,-2464.6557 C 4039.5882,-2464.6557 4028.1126,-2464.6557 4017.3451,-2463.3981"
         style="fill:#166fc0;fill-rule:evenodd;stroke:none"
         id="path19975" />
      <path
         d="M 4502.9976,-2463.3981 L 4502.9976,-2313.7487 L 4536.0083,-2313.7487 L 4536.0083,-2435.7319 L 4573.3421,-2435.7319 C 4585.9176,-2435.7319 4596.7637,-2425.5145 4596.7637,-2412.9385 L 4596.7637,-2313.7487 L 4629.775,-2313.7487 L 4629.775,-2411.7595 C 4629.775,-2441.1549 4606.3528,-2464.6557 4576.8787,-2464.6557 L 4536.0083,-2464.6557 C 4525.2407,-2464.6557 4513.7651,-2464.6557 4502.9976,-2463.3981"
         style="fill:#166fc0;fill-rule:evenodd;stroke:none"
         id="path19977" />
      <path
         d="M 4203.0701,-2463.3981 L 4203.0701,-2313.7487 L 4236.0813,-2313.7487 L 4236.0813,-2435.7319 L 4275.1439,-2435.7319 C 4288.4268,-2435.7319 4298.6447,-2425.5145 4298.6447,-2412.9385 C 4298.6447,-2399.7342 4288.4268,-2389.5169 4275.1439,-2389.5169 L 4246.9275,-2389.5169 L 4298.0158,-2313.7487 L 4338.8863,-2313.7487 L 4301.631,-2368.4528 C 4319.6301,-2375.055 4331.6553,-2392.5033 4331.6553,-2412.9385 C 4331.6553,-2441.1549 4308.862,-2464.6557 4279.9387,-2464.6557 L 4236.0813,-2464.6557 C 4224.6844,-2464.6557 4213.8382,-2464.6557 4203.0701,-2463.3981"
         style="fill:#166fc0;fill-rule:evenodd;stroke:none"
         id="path19979" />
    </g>
  </g>
</svg>
